<!DOCTYPE svg PUBLIC "-//W3C//DTD SVG 20010904//EN" "http://www.w3.org/TR/2001/REC-SVG-20010904/DTD/svg10.dtd">
<svg version="1.0" xmlns="http://www.w3.org/2000/svg" width="884px" height="1200px" viewBox="0 0 8840 12000" preserveAspectRatio="xMidYMid meet">
<g id="layer101" fill="#ec749b" stroke="none">
<path d="M512 9872 c-12 -8 -11 -15 3 -42 9 -17 14 -35 10 -38 -3 -3 -26 0 -51 6 -62 17 -78 4 -69 -53 9 -56 25 -78 108 -139 40 -30 103 -83 139 -119 91 -90 128 -107 252 -116 56 -4 104 -5 108 -2 4 3 11 49 17 101 l11 95 -40 82 c-51 104 -92 140 -218 189 -77 30 -113 38 -177 41 -44 2 -86 0 -93 -5z"/>
<path d="M8732 8125 c-185 -63 -245 -106 -315 -225 -59 -101 -63 -123 -46 -258 l14 -117 90 3 c172 6 250 34 327 116 l38 41 0 233 c0 267 10 247 -108 207z"/>
<path d="M1368 7850 c-17 -10 -17 -13 -2 -41 8 -17 13 -34 9 -37 -3 -3 -24 -1 -47 5 -62 17 -81 3 -73 -50 10 -60 26 -80 113 -144 42 -32 105 -85 140 -120 87 -88 122 -103 251 -113 58 -4 108 -6 110 -4 2 2 8 48 13 103 l10 100 -34 68 c-51 105 -104 151 -223 197 -107 41 -232 58 -267 36z"/>
<path d="M5585 7011 c-26 -5 -30 -10 -27 -34 2 -19 -1 -27 -12 -27 -8 0 -18 5 -21 10 -8 12 -56 13 -87 1 -19 -7 -28 -23 -41 -69 -21 -76 -11 -136 39 -242 115 -243 207 -339 354 -369 64 -13 201 -18 217 -8 6 4 15 21 18 39 4 17 21 61 38 97 24 52 31 79 31 131 0 149 -43 236 -162 328 -106 81 -151 108 -221 132 -63 21 -76 22 -126 11z"/>
<path d="M3145 6539 c-84 -16 -169 -48 -198 -74 -32 -31 -34 -41 -7 -50 30 -9 24 -23 -15 -39 -40 -17 -44 -34 -14 -60 29 -24 73 -36 137 -36 29 0 84 -5 123 -11 91 -16 186 -1 243 38 22 15 49 31 59 35 23 10 22 13 -21 83 -31 51 -47 65 -101 93 -68 34 -109 38 -206 21z"/>
<path d="M557 5828 c-15 -5 -27 -13 -25 -16 2 -4 12 -24 23 -44 10 -21 16 -40 13 -44 -4 -3 -31 1 -61 10 -83 24 -103 9 -91 -70 9 -59 38 -95 135 -166 46 -33 125 -100 175 -149 118 -115 149 -129 313 -139 69 -4 128 -6 131 -3 2 2 8 61 14 131 l9 128 -44 85 c-59 115 -114 167 -226 213 -166 70 -291 92 -366 64z"/>
<path d="M1388 3290 c-47 -14 -178 -91 -178 -104 0 -13 60 -127 93 -177 26 -39 82 -74 167 -104 41 -15 117 -50 169 -77 92 -50 94 -50 167 -46 108 7 127 31 74 91 -16 19 -30 37 -30 40 0 2 18 7 40 11 49 8 51 25 14 100 -29 58 -159 196 -219 231 -66 39 -224 57 -297 35z"/>
<path d="M8113 3235 c-81 -15 -151 -43 -173 -70 -13 -16 -13 -19 8 -33 31 -20 28 -29 -13 -36 -47 -9 -51 -21 -21 -66 29 -44 57 -61 149 -91 151 -48 278 -33 362 43 l47 43 -32 67 c-34 72 -71 110 -135 139 -46 21 -91 22 -192 4z"/>
<path d="M4355 2331 c-27 -10 -50 -22 -50 -27 1 -27 30 -124 47 -154 10 -19 45 -53 76 -75 31 -22 82 -63 113 -92 46 -41 68 -53 113 -63 31 -6 60 -9 66 -5 13 8 13 52 0 60 -5 3 -10 13 -10 20 0 11 8 13 30 9 29 -6 30 -6 30 34 0 47 -63 177 -108 225 -66 71 -211 103 -307 68z"/>
<path d="M6349 2171 c-34 -11 -166 -88 -174 -102 -4 -6 0 -18 8 -27 8 -9 27 -42 42 -72 53 -106 90 -138 205 -180 36 -13 111 -47 168 -77 110 -57 154 -65 235 -42 45 12 50 42 12 87 -14 17 -25 33 -25 36 0 3 18 9 40 12 48 8 50 18 15 93 -35 75 -180 222 -248 251 -56 24 -229 37 -278 21z"/>
<path d="M7540 1104 c-36 -16 -38 -23 -19 -74 40 -106 21 -122 -83 -69 -102 51 -125 32 -133 -107 -9 -152 16 -204 200 -423 236 -280 354 -379 497 -417 65 -16 237 -15 398 3 l65 8 7 85 c4 47 14 121 22 165 23 113 20 159 -14 259 -37 110 -78 184 -148 264 -77 89 -138 131 -282 195 -204 90 -270 109 -390 113 -58 2 -112 1 -120 -2z"/>
<path d="M3293 820 c-28 -11 -28 -20 -3 -64 12 -19 17 -37 12 -40 -5 -3 -35 2 -67 11 -57 16 -58 16 -76 -5 -13 -17 -16 -33 -12 -60 11 -71 37 -103 148 -181 33 -23 101 -82 151 -130 50 -49 108 -98 130 -109 52 -26 129 -41 237 -45 102 -4 90 -19 107 143 l12 104 -47 93 c-64 127 -120 177 -250 228 -54 21 -120 44 -149 51 -57 15 -159 17 -193 4z"/>
</g>
<g id="layer102" fill="#f19db9" stroke="none">
<path d="M3770 10691 c-66 -14 -115 -50 -148 -108 -37 -64 -38 -69 -14 -76 9 -4 37 -18 62 -32 49 -27 84 -30 188 -15 37 5 100 14 141 19 106 14 158 69 80 86 -34 8 -38 21 -8 30 11 4 18 12 16 18 -5 18 -65 55 -106 67 -48 14 -168 21 -211 11z"/>
<path d="M2265 10118 c-57 -21 -59 -54 -10 -156 31 -65 40 -75 80 -93 35 -15 56 -18 96 -13 47 6 53 10 69 45 12 29 15 51 10 86 -6 40 -15 55 -59 95 -49 45 -56 48 -104 47 -29 0 -65 -5 -82 -11z"/>
<path d="M512 9871 c-12 -7 -11 -14 3 -41 9 -17 14 -35 10 -38 -3 -3 -26 0 -51 6 -62 17 -78 4 -69 -53 9 -56 25 -78 108 -139 40 -30 103 -83 139 -119 92 -91 131 -109 248 -114 111 -5 120 1 120 84 0 29 5 62 12 72 14 23 -5 78 -55 161 -44 74 -85 103 -209 150 -87 33 -119 40 -175 40 -37 0 -74 -4 -81 -9z"/>
<path d="M5510 8353 c-20 -7 -60 -44 -60 -55 0 -5 17 -19 37 -31 l38 -22 -28 -9 c-15 -6 -27 -16 -27 -22 0 -26 75 -84 149 -115 90 -39 163 -43 254 -14 48 15 67 28 105 72 26 30 47 60 47 67 0 17 -92 96 -130 111 -31 13 -358 28 -385 18z"/>
<path d="M3878 8176 c-8 -8 -23 -15 -34 -18 -13 -2 -20 -13 -22 -34 -4 -37 71 -145 117 -169 31 -15 137 -21 157 -7 30 19 34 106 8 152 -38 64 -188 114 -226 76z"/>
<path d="M8750 8131 c-92 -30 -182 -70 -223 -98 -43 -30 -105 -115 -143 -196 -24 -53 -32 -117 -14 -117 6 0 10 -28 10 -64 0 -34 5 -77 11 -94 l10 -30 82 -1 c154 -1 242 30 319 113 l38 41 0 233 c0 264 8 245 -90 213z"/>
<path d="M1368 7850 c-17 -10 -17 -13 -2 -41 8 -17 13 -34 9 -37 -3 -3 -24 -1 -47 5 -62 17 -81 3 -73 -50 10 -60 26 -80 113 -144 42 -32 105 -85 140 -120 87 -87 126 -105 239 -111 115 -6 123 -1 123 79 0 32 5 61 10 64 33 20 -27 161 -100 235 -61 62 -210 121 -320 127 -44 2 -82 -1 -92 -7z"/>
<path d="M5585 7011 c-26 -5 -30 -10 -27 -34 2 -19 -1 -27 -12 -27 -8 0 -18 5 -21 10 -8 12 -56 13 -87 1 -19 -7 -28 -23 -41 -69 -21 -76 -11 -136 39 -242 139 -295 247 -380 479 -380 63 0 77 3 95 22 11 12 21 30 21 40 2 28 3 30 34 88 23 45 29 67 29 120 -1 149 -43 236 -162 328 -106 81 -151 108 -221 132 -63 21 -76 22 -126 11z"/>
<path d="M3145 6539 c-84 -16 -169 -48 -198 -74 -32 -31 -34 -41 -7 -50 30 -9 24 -23 -15 -39 -40 -17 -44 -34 -14 -60 29 -24 73 -36 137 -36 29 0 84 -5 123 -11 95 -16 188 -1 247 41 23 16 47 30 52 30 23 0 18 24 -18 82 -32 54 -47 68 -101 96 -68 34 -109 38 -206 21z"/>
<path d="M557 5828 c-15 -5 -27 -13 -25 -16 2 -4 12 -24 23 -44 10 -21 16 -40 13 -44 -4 -3 -31 1 -61 10 -83 24 -103 9 -91 -70 9 -59 38 -95 135 -166 46 -33 125 -100 175 -149 118 -115 155 -132 291 -135 56 -1 107 -5 112 -8 18 -12 40 38 45 104 3 36 9 86 12 112 5 41 1 55 -37 130 -59 114 -115 166 -226 212 -166 70 -291 92 -366 64z"/>
<path d="M8655 5254 c-118 -18 -135 -25 -205 -87 -39 -34 -70 -65 -70 -69 0 -4 10 -18 23 -31 12 -13 39 -44 60 -70 50 -62 95 -83 224 -107 60 -10 118 -22 131 -26 l22 -6 0 186 0 186 -27 11 c-33 12 -115 19 -158 13z"/>
<path d="M5835 5023 c-72 -10 -106 -26 -166 -80 -35 -31 -66 -60 -67 -65 -4 -9 66 -98 112 -142 41 -39 76 -52 187 -70 52 -8 121 -24 153 -36 95 -32 213 -22 252 22 16 17 15 20 -26 58 -44 41 -44 42 12 54 25 6 26 9 18 32 -18 47 -60 92 -135 143 -111 77 -147 91 -235 89 -41 0 -88 -3 -105 -5z"/>
<path d="M1390 3291 c-46 -14 -91 -42 -84 -52 3 -6 0 -9 -7 -8 -23 4 -89 -29 -89 -44 0 -14 59 -126 93 -178 26 -39 82 -74 167 -104 41 -15 117 -50 169 -77 92 -50 94 -50 167 -46 108 7 127 31 74 91 -16 19 -30 37 -30 40 0 2 18 7 40 11 49 8 51 25 14 100 -29 58 -159 196 -219 231 -65 38 -224 57 -295 36z"/>
<path d="M8113 3235 c-81 -15 -151 -43 -173 -70 -13 -16 -13 -19 8 -33 31 -20 28 -29 -13 -36 -47 -9 -51 -21 -21 -66 29 -44 57 -61 149 -91 151 -48 277 -33 363 44 l48 44 -27 46 c-15 25 -27 52 -27 60 0 20 -65 76 -114 98 -47 21 -92 22 -193 4z"/>
<path d="M4404 2342 c7 -12 -18 -20 -63 -21 -38 0 -41 -12 -21 -83 25 -91 42 -116 108 -163 31 -22 82 -63 113 -92 46 -41 68 -53 113 -63 31 -6 60 -9 66 -5 13 8 13 52 0 60 -5 3 -10 13 -10 20 0 11 8 13 30 9 29 -6 30 -6 30 34 0 47 -63 177 -108 225 -39 42 -126 78 -201 85 -46 3 -62 2 -57 -6z"/>
<path d="M6335 2165 c-22 -8 -41 -15 -42 -15 -2 0 -3 -6 -3 -14 0 -15 -21 -26 -48 -26 -9 0 -30 -11 -47 -24 -28 -23 -29 -25 -14 -43 9 -10 29 -43 44 -73 53 -106 90 -138 205 -180 36 -13 111 -47 168 -77 110 -57 154 -65 235 -42 45 12 50 42 12 87 -14 17 -25 33 -25 36 0 3 18 9 40 12 48 8 50 18 15 93 -35 75 -180 222 -248 251 -68 29 -232 38 -292 15z"/>
<path d="M7540 1104 c-36 -16 -38 -23 -19 -74 40 -106 21 -122 -83 -69 -102 51 -125 32 -133 -107 -9 -152 16 -204 200 -423 236 -280 354 -379 497 -417 65 -16 237 -15 398 3 l65 8 2 53 c1 29 11 104 23 167 27 151 25 185 -10 289 -37 110 -78 184 -148 264 -77 89 -138 131 -282 195 -204 90 -270 109 -390 113 -58 2 -112 1 -120 -2z"/>
<path d="M3293 820 c-28 -11 -28 -20 -3 -64 12 -19 17 -37 12 -40 -5 -3 -35 2 -67 11 -57 16 -58 16 -76 -5 -13 -17 -16 -33 -12 -60 11 -71 37 -103 148 -181 33 -23 101 -82 151 -130 96 -95 139 -122 219 -139 61 -14 210 -11 226 5 6 6 13 47 16 92 3 44 10 81 14 81 22 0 5 67 -37 150 -64 124 -120 175 -249 225 -54 21 -120 44 -149 51 -57 15 -159 17 -193 4z"/>
</g>
<g id="layer103" fill="#f8d1df" stroke="none">
<path d="M3770 10691 c-40 -8 -120 -50 -120 -63 0 -4 9 -8 20 -8 29 0 25 -16 -10 -37 -22 -13 -30 -25 -30 -45 0 -15 5 -28 11 -28 13 0 39 -25 39 -39 0 -27 102 -24 334 10 93 13 135 69 65 84 -34 8 -38 21 -8 30 11 4 18 12 16 18 -5 18 -65 55 -106 67 -48 14 -168 21 -211 11z"/>
<path d="M2265 10118 c-36 -13 -45 -25 -45 -58 0 -37 65 -167 90 -180 29 -15 110 -7 124 12 6 9 27 24 46 34 34 18 35 21 29 63 -5 38 -14 53 -58 93 -49 45 -56 48 -104 47 -29 0 -65 -5 -82 -11z"/>
<path d="M512 9872 c-12 -8 -11 -15 3 -42 9 -17 14 -35 10 -38 -3 -3 -26 0 -51 6 -62 17 -78 4 -69 -53 9 -56 25 -78 108 -139 40 -29 104 -85 144 -124 90 -88 136 -107 232 -99 112 9 124 28 102 145 -8 42 -8 43 15 38 34 -9 31 12 -13 96 -47 90 -92 127 -211 174 -77 30 -113 38 -177 41 -44 2 -86 0 -93 -5z"/>
<path d="M5510 8353 c-20 -7 -60 -44 -60 -55 0 -5 17 -19 37 -31 l38 -22 -28 -9 c-15 -6 -27 -16 -27 -22 0 -26 75 -84 149 -115 90 -39 163 -43 253 -14 65 20 96 45 57 45 -22 0 -20 4 19 36 48 41 51 60 20 109 -39 61 -80 72 -273 78 -93 3 -177 3 -185 0z"/>
<path d="M3878 8176 c-8 -8 -23 -15 -34 -18 -13 -2 -20 -13 -22 -34 -2 -23 8 -45 43 -93 50 -68 96 -95 143 -86 15 4 37 8 50 11 16 3 22 11 22 29 0 14 9 30 20 37 45 29 9 98 -72 139 -62 32 -127 38 -150 15z"/>
<path d="M8750 8131 c-175 -57 -245 -100 -302 -184 -62 -92 -113 -220 -75 -189 6 5 21 12 33 16 20 6 20 6 6 -83 -13 -87 -13 -90 8 -111 26 -26 87 -38 178 -35 82 3 140 31 204 99 l38 41 0 233 c0 264 8 245 -90 213z"/>
<path d="M1368 7850 c-17 -10 -17 -13 -2 -41 8 -17 13 -34 9 -37 -3 -3 -24 -1 -47 5 -62 17 -81 3 -73 -50 10 -60 26 -80 113 -144 42 -32 105 -85 140 -120 88 -88 128 -107 216 -100 39 2 84 10 100 16 l29 12 -7 79 c-3 44 -4 80 -1 80 4 0 15 -5 27 -11 18 -10 19 -8 13 13 -17 56 -81 162 -117 192 -59 51 -216 108 -308 113 -44 2 -82 -1 -92 -7z"/>
<path d="M5585 7011 c-26 -5 -30 -10 -27 -34 2 -19 -1 -27 -12 -27 -8 0 -18 5 -21 10 -8 12 -56 13 -87 1 -36 -14 -61 -111 -48 -183 20 -106 142 -328 219 -400 56 -52 120 -76 231 -85 60 -5 70 -3 89 16 11 11 26 21 31 21 6 0 10 5 10 10 0 6 -5 10 -11 10 -6 0 -4 7 5 15 8 8 20 15 26 15 7 0 9 8 5 19 -3 11 1 26 12 37 10 9 23 27 28 38 6 12 22 22 39 24 l28 4 -6 61 c-18 156 -51 217 -164 305 -106 81 -151 108 -221 132 -63 21 -76 22 -126 11z"/>
<path d="M3145 6539 c-84 -16 -169 -48 -198 -74 -32 -31 -34 -41 -7 -50 30 -9 24 -23 -15 -39 -40 -17 -44 -34 -14 -60 29 -24 73 -36 137 -36 29 0 85 -5 123 -12 81 -13 209 3 209 27 0 7 -6 16 -12 18 -8 3 -6 6 5 6 15 1 17 11 15 69 -1 37 -6 70 -12 74 -7 5 -4 8 7 8 35 0 15 26 -41 53 -62 29 -106 32 -197 16z"/>
<path d="M5940 6294 c-24 -13 -24 -14 -4 -14 12 0 24 7 28 15 3 8 4 15 3 14 -1 -1 -13 -7 -27 -15z"/>
<path d="M557 5828 c-15 -5 -27 -13 -25 -16 2 -4 12 -24 23 -44 10 -21 16 -40 13 -44 -4 -3 -31 1 -61 10 -31 9 -62 13 -71 10 -19 -7 -30 -45 -21 -72 3 -11 8 -30 10 -41 7 -35 40 -70 127 -133 46 -33 124 -100 173 -148 120 -117 137 -125 255 -124 83 0 100 4 133 25 l37 24 -5 82 c-6 87 3 108 29 71 16 -22 16 -22 16 11 0 48 -76 187 -132 242 -103 102 -393 187 -501 147z"/>
<path d="M8625 5249 c-32 -5 -75 -14 -94 -20 -33 -11 -34 -13 -13 -20 33 -13 27 -27 -23 -51 -29 -14 -48 -31 -51 -45 -4 -13 -11 -23 -17 -23 -5 0 -2 -9 9 -21 10 -12 18 -30 16 -40 -2 -10 2 -19 8 -19 6 0 9 -4 6 -8 -7 -12 40 -55 81 -76 18 -9 81 -25 140 -36 60 -10 118 -22 131 -26 l22 -6 0 186 0 186 -27 11 c-41 16 -119 19 -188 8z"/>
<path d="M5812 5019 c-29 -5 -63 -14 -75 -21 l-22 -12 23 -5 c13 -3 23 -10 23 -14 0 -13 -45 -45 -74 -52 -17 -5 -27 -14 -27 -25 0 -11 -4 -21 -10 -25 -11 -7 -2 -36 17 -50 7 -5 14 -20 16 -32 4 -27 50 -71 92 -89 18 -7 74 -20 126 -28 52 -8 121 -24 153 -36 95 -32 213 -22 252 22 16 17 15 20 -26 58 -44 41 -44 42 12 54 25 6 26 9 18 32 -18 47 -60 92 -135 143 -111 77 -147 91 -235 90 -41 -1 -99 -5 -128 -10z"/>
<path d="M1413 3285 c0 -8 6 -15 14 -15 7 0 13 -9 13 -20 0 -16 -9 -21 -51 -26 l-51 -7 5 -48 c6 -45 4 -50 -22 -68 -20 -14 -28 -29 -28 -48 0 -58 57 -106 177 -148 41 -15 117 -50 169 -77 92 -50 94 -50 167 -46 108 7 127 31 74 91 -16 19 -30 37 -30 40 0 2 18 7 40 11 49 8 51 25 14 100 -29 58 -159 196 -219 231 -70 41 -272 63 -272 30z"/>
<path d="M8113 3235 c-81 -15 -151 -43 -173 -70 -13 -16 -13 -19 8 -33 31 -20 28 -29 -13 -36 -19 -4 -37 -11 -41 -17 -9 -16 42 -87 76 -104 56 -29 154 -56 227 -62 62 -5 78 -3 115 16 24 13 48 28 53 35 6 7 19 18 30 24 11 6 15 12 8 12 -7 0 -10 12 -8 31 3 21 -2 40 -15 56 -20 26 -17 53 6 53 40 0 -13 61 -81 91 -46 21 -91 22 -192 4z"/>
<path d="M4468 2344 c6 -3 12 -14 12 -25 0 -15 -7 -19 -35 -19 -32 0 -36 -3 -42 -30 -3 -20 -16 -36 -33 -45 -16 -8 -30 -20 -33 -27 -9 -25 34 -83 91 -123 31 -22 82 -63 113 -92 46 -41 68 -53 113 -63 31 -6 60 -9 66 -5 13 8 13 52 0 60 -5 3 -10 13 -10 20 0 11 8 13 30 9 29 -6 30 -6 30 34 0 47 -63 177 -108 225 -31 34 -112 73 -168 81 -22 3 -33 3 -26 0z"/>
<path d="M6388 2159 c30 -32 24 -42 -32 -53 l-48 -10 5 -49 c6 -46 5 -49 -24 -65 -20 -11 -28 -23 -25 -34 2 -10 0 -20 -5 -24 -13 -8 29 -60 70 -87 20 -13 65 -34 101 -47 36 -13 111 -47 168 -77 110 -57 154 -65 235 -42 45 12 50 42 12 87 -14 17 -25 33 -25 36 0 3 18 9 40 12 48 8 50 18 15 93 -16 35 -56 86 -111 142 -109 111 -148 129 -293 137 l-105 5 22 -24z"/>
<path d="M7540 1104 c-36 -16 -38 -23 -19 -74 40 -106 21 -122 -83 -69 -102 51 -125 32 -133 -107 -6 -97 8 -158 51 -232 36 -60 252 -316 356 -422 125 -127 281 -210 341 -183 12 5 39 8 59 5 27 -3 44 1 62 16 14 10 47 25 73 32 28 8 62 27 82 47 19 18 37 33 41 33 14 0 28 46 19 63 -6 11 -6 24 1 37 8 16 6 24 -10 40 -18 18 -20 28 -14 67 7 45 7 45 40 39 115 -21 104 -22 104 16 0 46 -51 195 -91 266 -42 74 -129 174 -193 222 -55 41 -252 131 -381 175 -62 21 -104 28 -185 31 -58 2 -112 1 -120 -2z"/>
<path d="M3293 820 c-28 -11 -28 -20 -3 -64 12 -19 17 -37 12 -40 -5 -3 -35 2 -67 11 -57 16 -58 16 -76 -5 -13 -17 -16 -33 -12 -60 11 -71 37 -103 148 -181 33 -23 101 -82 151 -130 50 -49 108 -98 130 -109 51 -26 125 -37 152 -23 14 7 22 7 24 1 4 -13 65 6 89 26 8 8 24 14 33 14 16 0 17 6 11 51 -17 124 -13 146 19 113 15 -14 17 -14 22 1 4 10 -12 54 -41 111 -64 128 -120 178 -250 229 -54 21 -120 44 -149 51 -57 15 -159 17 -193 4z"/>
</g>


</svg>